<?xml version="1.0" encoding="UTF-8"?>
<svg version="1.1" xmlns="http://www.w3.org/2000/svg" width="600" height="600">
<path d="M0 0 C1.74022037 0.65298472 3.51761109 1.20600694 5.30078125 1.73046875 C8.53225834 2.95124898 11.15858522 4.62693122 14.04296875 6.5078125 C16.02276697 7.73678158 18.00507542 8.74250563 20.11328125 9.73046875 C23.70922488 11.48305487 26.74420091 13.62578163 29.8984375 16.07421875 C32.52114166 18.10947418 35.18587993 20.08025225 37.86328125 22.04296875 C38.765625 22.708125 39.66796875 23.37328125 40.59765625 24.05859375 C42.95429206 25.79083434 42.95429206 25.79083434 45.12890625 26.71484375 C47.99183451 28.27029296 49.85911438 30.4394005 52.11328125 32.79296875 C53.36944276 34.04333836 54.62881544 35.2904866 55.890625 36.53515625 C57.27739568 37.91270814 58.66411328 39.29031347 60.05078125 40.66796875 C61.0862207 41.69083984 61.0862207 41.69083984 62.14257812 42.734375 C66.35121477 46.9230655 70.33855577 51.20932306 74.11328125 55.79296875 C74.82484375 56.65148437 75.53640625 57.51 76.26953125 58.39453125 C80.47412616 63.86406785 84.05829826 69.83940363 87.42578125 75.85546875 C88.94885421 78.80248106 88.94885421 78.80248106 91.11328125 80.79296875 C93.41004119 84.83526624 94.37219943 88.24060902 95.11328125 92.79296875 C95.77328125 93.12296875 96.43328125 93.45296875 97.11328125 93.79296875 C97.89453125 95.90234375 97.89453125 95.90234375 98.61328125 98.54296875 C99.33398748 101.1594457 100.05313838 103.65051269 101.109375 106.15234375 C102.37610429 109.48428538 103.00730567 112.79309659 103.67578125 116.29296875 C103.92457031 117.58203125 104.17335938 118.87109375 104.4296875 120.19921875 C104.65527344 121.38515625 104.88085938 122.57109375 105.11328125 123.79296875 C105.30535156 124.64375 105.49742187 125.49453125 105.6953125 126.37109375 C108.13190991 140.48969555 106.05119414 157.31008777 102.734375 171.1328125 C102.03749284 173.66228849 102.03749284 173.66228849 102.11328125 175.79296875 C101.45328125 175.79296875 100.79328125 175.79296875 100.11328125 175.79296875 C100.44328125 177.44296875 100.77328125 179.09296875 101.11328125 180.79296875 C100.45328125 180.79296875 99.79328125 180.79296875 99.11328125 180.79296875 C98.71238281 181.79714844 98.31148437 182.80132812 97.8984375 183.8359375 C94.40452441 192.32815981 90.48365484 199.72609373 85.03125 207.12109375 C83.11890482 209.62557457 83.11890482 209.62557457 82.0625 211.95703125 C80.9231942 214.16062682 79.63545996 215.32497903 77.73828125 216.91796875 C77.02285156 217.51996094 76.30742187 218.12195313 75.5703125 218.7421875 C74.75949219 219.41894531 73.94867188 220.09570312 73.11328125 220.79296875 C71.75783203 221.97826172 71.75783203 221.97826172 70.375 223.1875 C60.35687145 231.82564793 45.05321074 244.79296875 31.11328125 244.79296875 C30.78328125 245.45296875 30.45328125 246.11296875 30.11328125 246.79296875 C27.33809719 247.56101969 24.61552595 248.2095075 21.80078125 248.79296875 C21.04732422 248.95796875 20.29386719 249.12296875 19.51757812 249.29296875 C17.05443113 249.82152334 14.58614714 250.31197918 12.11328125 250.79296875 C11.1996582 250.97754639 10.28603516 251.16212402 9.34472656 251.35229492 C1.36897329 252.84258561 -6.40921629 253.1407128 -14.51171875 253.10546875 C-15.83115479 253.1012793 -17.15059082 253.09708984 -18.51000977 253.09277344 C-33.99627121 252.91427934 -48.07287294 250.09728678 -62.88671875 245.79296875 C-63.19609375 247.68015625 -63.19609375 247.68015625 -63.51171875 249.60546875 C-64.61424422 255.13407475 -66.21711801 260.47726358 -67.88671875 265.85546875 C-68.14791504 266.71309814 -68.40911133 267.57072754 -68.67822266 268.4543457 C-68.93265137 269.25831787 -69.18708008 270.06229004 -69.44921875 270.890625 C-69.79146484 271.98129272 -69.79146484 271.98129272 -70.140625 273.09399414 C-70.88671875 274.79296875 -70.88671875 274.79296875 -72.88671875 275.79296875 C-73.29401103 278.11453472 -73.63110552 280.44984745 -73.88671875 282.79296875 C-74.54671875 282.79296875 -75.20671875 282.79296875 -75.88671875 282.79296875 C-76.12132812 283.6128125 -76.3559375 284.43265625 -76.59765625 285.27734375 C-78.14566196 289.49917749 -80.24401322 293.1736962 -82.51171875 297.04296875 C-85.59553441 301.64323556 -85.59553441 301.64323556 -86.88671875 306.79296875 C-88.2170592 308.12928826 -89.55108061 309.46194421 -90.88671875 310.79296875 C-92.31840139 312.78856462 -93.71128166 314.8123044 -95.07421875 316.85546875 C-101.85764138 326.84608684 -109.63580762 335.984213 -117.88671875 344.79296875 C-118.57411133 345.53135986 -118.57411133 345.53135986 -119.27539062 346.28466797 C-149.2205521 378.18839412 -190.79991167 399.05708486 -234.765625 400.9609375 C-248.22378082 401.0322957 -261.18983228 399.75682415 -274.25 396.37890625 C-277.08733705 395.64834844 -277.08733705 395.64834844 -280.88671875 395.79296875 C-280.88671875 395.13296875 -280.88671875 394.47296875 -280.88671875 393.79296875 C-281.44617188 393.65761719 -282.005625 393.52226562 -282.58203125 393.3828125 C-293.77649452 390.37722509 -303.64635891 384.81007429 -313.26171875 378.48046875 C-313.92260498 378.04790771 -314.58349121 377.61534668 -315.2644043 377.16967773 C-316.8449205 376.10063501 -318.37202086 374.95338856 -319.88671875 373.79296875 C-319.88671875 373.13296875 -319.88671875 372.47296875 -319.88671875 371.79296875 C-320.78185181 371.38244263 -320.78185181 371.38244263 -321.69506836 370.96362305 C-325.17420617 369.1052666 -327.68056407 366.38092231 -330.44921875 363.60546875 C-331.36598389 362.68846191 -331.36598389 362.68846191 -332.30126953 361.75292969 C-348.88671875 344.75790998 -348.88671875 344.75790998 -348.88671875 338.79296875 C-349.54671875 338.79296875 -350.20671875 338.79296875 -350.88671875 338.79296875 C-374.59758667 292.99608934 -381.16276782 241.62837417 -365.88671875 191.79296875 C-362.39386365 180.95388879 -358.42444449 169.77116187 -352.88671875 159.79296875 C-352.22671875 159.46296875 -351.56671875 159.13296875 -350.88671875 158.79296875 C-350.21110127 157.12991035 -349.54738594 155.4620227 -348.88671875 153.79296875 C-347.27661758 150.76069621 -345.58861278 147.77453119 -343.88671875 144.79296875 C-343.22671875 144.79296875 -342.56671875 144.79296875 -341.88671875 144.79296875 C-341.61859375 144.02984375 -341.35046875 143.26671875 -341.07421875 142.48046875 C-339.92068234 139.86983371 -338.9004201 138.71911786 -336.88671875 136.79296875 C-336.55671875 135.80296875 -336.22671875 134.81296875 -335.88671875 133.79296875 C-334.47144679 132.61357545 -333.05193103 131.43882886 -331.609375 130.29296875 C-329.76624261 128.68806435 -328.26695929 126.97920202 -326.69921875 125.10546875 C-310.60251958 106.42491766 -287.91440286 92.33691223 -265.01464844 83.62207031 C-263.53160979 83.04423653 -262.05876287 82.43984398 -260.59472656 81.81542969 C-253.95849451 79.01322805 -247.28357595 77.23804132 -240.26171875 75.66796875 C-239.11888428 75.40935059 -237.9760498 75.15073242 -236.79858398 74.88427734 C-224.52077732 72.17207159 -212.50891135 70.31161395 -199.88671875 70.79296875 C-199.70109375 69.65859375 -199.51546875 68.52421875 -199.32421875 67.35546875 C-195.394426 49.76894944 -186.12189175 36.5819261 -173.88671875 23.79296875 C-173.08878906 22.95378906 -172.29085937 22.11460938 -171.46875 21.25 C-167.51191701 17.17784947 -167.51191701 17.17784947 -165.88671875 15.79296875 C-165.22671875 15.79296875 -164.56671875 15.79296875 -163.88671875 15.79296875 C-163.88671875 15.13296875 -163.88671875 14.47296875 -163.88671875 13.79296875 C-161.76905433 12.30721293 -159.67553526 10.97438365 -157.44921875 9.66796875 C-156.44181641 9.07290527 -156.44181641 9.07290527 -155.4140625 8.46582031 C-140.75382661 -0.03414118 -124.94062775 -7.73686668 -107.88671875 -9.20703125 C-107.55671875 -9.86703125 -107.22671875 -10.52703125 -106.88671875 -11.20703125 C-71.57785675 -18.68420203 -33.21275192 -12.65493658 0 0 Z " fill="#FDA822" transform="translate(427.88671875,105.20703125)"/>
<path d="M0 0 C1.74022037 0.65298472 3.51761109 1.20600694 5.30078125 1.73046875 C8.53225834 2.95124898 11.15858522 4.62693122 14.04296875 6.5078125 C16.02276697 7.73678158 18.00507542 8.74250563 20.11328125 9.73046875 C23.70922488 11.48305487 26.74420091 13.62578163 29.8984375 16.07421875 C32.52114166 18.10947418 35.18587993 20.08025225 37.86328125 22.04296875 C38.765625 22.708125 39.66796875 23.37328125 40.59765625 24.05859375 C42.95429206 25.79083434 42.95429206 25.79083434 45.12890625 26.71484375 C47.99183451 28.27029296 49.85911438 30.4394005 52.11328125 32.79296875 C53.36944276 34.04333836 54.62881544 35.2904866 55.890625 36.53515625 C57.27739568 37.91270814 58.66411328 39.29031347 60.05078125 40.66796875 C61.0862207 41.69083984 61.0862207 41.69083984 62.14257812 42.734375 C66.35121477 46.9230655 70.33855577 51.20932306 74.11328125 55.79296875 C74.82484375 56.65148437 75.53640625 57.51 76.26953125 58.39453125 C80.47412616 63.86406785 84.05829826 69.83940363 87.42578125 75.85546875 C88.94885421 78.80248106 88.94885421 78.80248106 91.11328125 80.79296875 C93.41004119 84.83526624 94.37219943 88.24060902 95.11328125 92.79296875 C95.77328125 93.12296875 96.43328125 93.45296875 97.11328125 93.79296875 C97.89453125 95.90234375 97.89453125 95.90234375 98.61328125 98.54296875 C99.33398748 101.1594457 100.05313838 103.65051269 101.109375 106.15234375 C102.37610429 109.48428538 103.00730567 112.79309659 103.67578125 116.29296875 C103.92457031 117.58203125 104.17335938 118.87109375 104.4296875 120.19921875 C104.65527344 121.38515625 104.88085938 122.57109375 105.11328125 123.79296875 C105.30535156 124.64375 105.49742187 125.49453125 105.6953125 126.37109375 C108.13190991 140.48969555 106.05119414 157.31008777 102.734375 171.1328125 C102.03749284 173.66228849 102.03749284 173.66228849 102.11328125 175.79296875 C101.45328125 175.79296875 100.79328125 175.79296875 100.11328125 175.79296875 C100.44328125 177.44296875 100.77328125 179.09296875 101.11328125 180.79296875 C100.45328125 180.79296875 99.79328125 180.79296875 99.11328125 180.79296875 C98.71238281 181.79714844 98.31148437 182.80132812 97.8984375 183.8359375 C94.40452441 192.32815981 90.48365484 199.72609373 85.03125 207.12109375 C83.11890482 209.62557457 83.11890482 209.62557457 82.0625 211.95703125 C80.9231942 214.16062682 79.63545996 215.32497903 77.73828125 216.91796875 C77.02285156 217.51996094 76.30742187 218.12195313 75.5703125 218.7421875 C74.75949219 219.41894531 73.94867188 220.09570312 73.11328125 220.79296875 C71.75783203 221.97826172 71.75783203 221.97826172 70.375 223.1875 C60.35687145 231.82564793 45.05321074 244.79296875 31.11328125 244.79296875 C30.78328125 245.45296875 30.45328125 246.11296875 30.11328125 246.79296875 C27.33809719 247.56101969 24.61552595 248.2095075 21.80078125 248.79296875 C21.04732422 248.95796875 20.29386719 249.12296875 19.51757812 249.29296875 C17.05443113 249.82152334 14.58614714 250.31197918 12.11328125 250.79296875 C11.1996582 250.97754639 10.28603516 251.16212402 9.34472656 251.35229492 C1.36897329 252.84258561 -6.40921629 253.1407128 -14.51171875 253.10546875 C-15.83115479 253.1012793 -17.15059082 253.09708984 -18.51000977 253.09277344 C-33.99627121 252.91427934 -48.07287294 250.09728678 -62.88671875 245.79296875 C-63.19609375 247.68015625 -63.19609375 247.68015625 -63.51171875 249.60546875 C-64.61424422 255.13407475 -66.21711801 260.47726358 -67.88671875 265.85546875 C-68.14791504 266.71309814 -68.40911133 267.57072754 -68.67822266 268.4543457 C-68.93265137 269.25831787 -69.18708008 270.06229004 -69.44921875 270.890625 C-69.79146484 271.98129272 -69.79146484 271.98129272 -70.140625 273.09399414 C-70.88671875 274.79296875 -70.88671875 274.79296875 -72.88671875 275.79296875 C-73.29401103 278.11453472 -73.63110552 280.44984745 -73.88671875 282.79296875 C-74.54671875 282.79296875 -75.20671875 282.79296875 -75.88671875 282.79296875 C-76.12132812 283.6128125 -76.3559375 284.43265625 -76.59765625 285.27734375 C-78.14566196 289.49917749 -80.24401322 293.1736962 -82.51171875 297.04296875 C-85.59553441 301.64323556 -85.59553441 301.64323556 -86.88671875 306.79296875 C-88.2170592 308.12928826 -89.55108061 309.46194421 -90.88671875 310.79296875 C-92.31840139 312.78856462 -93.71128166 314.8123044 -95.07421875 316.85546875 C-101.85764138 326.84608684 -109.63580762 335.984213 -117.88671875 344.79296875 C-118.57411133 345.53135986 -118.57411133 345.53135986 -119.27539062 346.28466797 C-149.2205521 378.18839412 -190.79991167 399.05708486 -234.765625 400.9609375 C-248.22378082 401.0322957 -261.18983228 399.75682415 -274.25 396.37890625 C-277.08733705 395.64834844 -277.08733705 395.64834844 -280.88671875 395.79296875 C-280.88671875 395.13296875 -280.88671875 394.47296875 -280.88671875 393.79296875 C-281.44617188 393.65761719 -282.005625 393.52226562 -282.58203125 393.3828125 C-293.77649452 390.37722509 -303.64635891 384.81007429 -313.26171875 378.48046875 C-313.92260498 378.04790771 -314.58349121 377.61534668 -315.2644043 377.16967773 C-316.8449205 376.10063501 -318.37202086 374.95338856 -319.88671875 373.79296875 C-319.88671875 373.13296875 -319.88671875 372.47296875 -319.88671875 371.79296875 C-320.78185181 371.38244263 -320.78185181 371.38244263 -321.69506836 370.96362305 C-325.17420617 369.1052666 -327.68056407 366.38092231 -330.44921875 363.60546875 C-331.36598389 362.68846191 -331.36598389 362.68846191 -332.30126953 361.75292969 C-348.88671875 344.75790998 -348.88671875 344.75790998 -348.88671875 338.79296875 C-349.54671875 338.79296875 -350.20671875 338.79296875 -350.88671875 338.79296875 C-374.59758667 292.99608934 -381.16276782 241.62837417 -365.88671875 191.79296875 C-362.39386365 180.95388879 -358.42444449 169.77116187 -352.88671875 159.79296875 C-352.22671875 159.46296875 -351.56671875 159.13296875 -350.88671875 158.79296875 C-350.21110127 157.12991035 -349.54738594 155.4620227 -348.88671875 153.79296875 C-347.27661758 150.76069621 -345.58861278 147.77453119 -343.88671875 144.79296875 C-343.22671875 144.79296875 -342.56671875 144.79296875 -341.88671875 144.79296875 C-341.61859375 144.02984375 -341.35046875 143.26671875 -341.07421875 142.48046875 C-339.92068234 139.86983371 -338.9004201 138.71911786 -336.88671875 136.79296875 C-336.55671875 135.80296875 -336.22671875 134.81296875 -335.88671875 133.79296875 C-334.47144679 132.61357545 -333.05193103 131.43882886 -331.609375 130.29296875 C-329.76624261 128.68806435 -328.26695929 126.97920202 -326.69921875 125.10546875 C-310.60251958 106.42491766 -287.91440286 92.33691223 -265.01464844 83.62207031 C-263.53160979 83.04423653 -262.05876287 82.43984398 -260.59472656 81.81542969 C-253.95849451 79.01322805 -247.28357595 77.23804132 -240.26171875 75.66796875 C-239.11888428 75.40935059 -237.9760498 75.15073242 -236.79858398 74.88427734 C-224.52077732 72.17207159 -212.50891135 70.31161395 -199.88671875 70.79296875 C-199.70109375 69.65859375 -199.51546875 68.52421875 -199.32421875 67.35546875 C-195.394426 49.76894944 -186.12189175 36.5819261 -173.88671875 23.79296875 C-173.08878906 22.95378906 -172.29085937 22.11460938 -171.46875 21.25 C-167.51191701 17.17784947 -167.51191701 17.17784947 -165.88671875 15.79296875 C-165.22671875 15.79296875 -164.56671875 15.79296875 -163.88671875 15.79296875 C-163.88671875 15.13296875 -163.88671875 14.47296875 -163.88671875 13.79296875 C-161.76905433 12.30721293 -159.67553526 10.97438365 -157.44921875 9.66796875 C-156.44181641 9.07290527 -156.44181641 9.07290527 -155.4140625 8.46582031 C-140.75382661 -0.03414118 -124.94062775 -7.73686668 -107.88671875 -9.20703125 C-107.55671875 -9.86703125 -107.22671875 -10.52703125 -106.88671875 -11.20703125 C-71.57785675 -18.68420203 -33.21275192 -12.65493658 0 0 Z M-247.88671875 95.79296875 C-248.55687012 96.00260254 -249.22702148 96.21223633 -249.91748047 96.42822266 C-273.16642717 103.93142309 -293.42072073 116.93511829 -310.88671875 133.79296875 C-311.75039063 134.59347656 -312.6140625 135.39398438 -313.50390625 136.21875 C-320.35662987 142.74057886 -325.73252765 149.90773613 -330.88671875 157.79296875 C-331.30985352 158.43621094 -331.73298828 159.07945312 -332.16894531 159.7421875 C-354.47489105 194.17350329 -362.11288937 240.36653019 -353.85546875 280.56640625 C-353.53647936 281.97615481 -353.21346573 283.384998 -352.88671875 284.79296875 C-352.72042969 285.5602832 -352.55414063 286.32759766 -352.3828125 287.11816406 C-347.63963729 308.71717858 -338.28836966 327.94523591 -323.88671875 344.79296875 C-323.21125 345.61410156 -322.53578125 346.43523437 -321.83984375 347.28125 C-309.05952099 362.27713966 -291.48003093 372.65519133 -272.88671875 378.79296875 C-272.24911621 379.00469727 -271.61151367 379.21642578 -270.95458984 379.43457031 C-250.06884728 385.99287017 -225.77434448 384.65352561 -204.88671875 378.79296875 C-203.77611084 378.49543701 -203.77611084 378.49543701 -202.64306641 378.19189453 C-177.9760994 371.42342094 -155.64214155 357.19674177 -137.49462891 339.36572266 C-135.82427401 337.73188933 -134.12854664 336.12757352 -132.4296875 334.5234375 C-100.50203433 303.98528567 -76.75733966 259.38573702 -75.68359375 214.640625 C-75.26163171 178.5111208 -84.3575513 145.62830132 -110.07421875 119.10546875 C-132.95153673 96.32903561 -166.16717329 88.19205989 -197.57421875 87.48046875 C-214.6843829 87.7525986 -231.58055263 90.67217636 -247.88671875 95.79296875 Z " fill="#651801" transform="translate(427.88671875,105.20703125)"/>
<path d="M0 0 C0.5480127 0.38430176 1.09602539 0.76860352 1.66064453 1.16455078 C18.10033977 12.9113457 33.15270616 27.9225353 44 45 C44.39864258 45.62406738 44.79728516 46.24813477 45.20800781 46.89111328 C60.55540058 71.39102003 67.64795067 100.868343 61.4375 129.5 C55.78696072 152.73664013 41.90171038 173.40297284 21.37670898 186.01147461 C-3.72262209 200.62824563 -33.3872599 205.23572017 -62 200.75 C-63.05453369 200.58612793 -63.05453369 200.58612793 -64.13037109 200.41894531 C-71.22622652 199.17337014 -78.10157802 197.04352259 -85 195 C-84.98428955 194.10506836 -84.9685791 193.21013672 -84.95239258 192.28808594 C-84.69305996 175.23997511 -84.66788522 158.79869264 -88 142 C-88.33944795 140.00102872 -88.67535872 138.00142928 -89 136 C-88.27562744 136.16008545 -87.55125488 136.3201709 -86.80493164 136.48510742 C-70.57251719 139.46484126 -55.12987492 137.09246923 -41.46875 127.84765625 C-30.37763173 119.54686679 -23.0846513 107.7862317 -21 94 C-19.89357506 78.39459774 -21.97843116 66.09730299 -31 53 C-31.40476562 52.38640625 -31.80953125 51.7728125 -32.2265625 51.140625 C-39.22274918 41.78376183 -51.55045427 35.66845755 -62.76953125 33.453125 C-79.35107478 31.12729785 -93.95696244 34.34205531 -107.625 44.125 C-116.36524172 51.27470303 -121.2040675 60.54293594 -125 71 C-128.5042886 69.43617027 -131.24860574 67.31430244 -134.25 64.9375 C-154.08889035 49.75473897 -177.2050126 41.96873993 -201.8671875 39.39453125 C-205 39 -205 39 -207 38 C-203.88344896 25.1182557 -197.87285788 13.80684292 -189 4 C-188.33484375 3.24203125 -187.6696875 2.4840625 -186.984375 1.703125 C-140.47368724 -48.25279889 -50.53501817 -35.51856589 0 0 Z " fill="#FDA822" transform="translate(453,139)"/>
<path d="M0 0 C15.30615046 -0.76530752 31.58069618 5.55052602 43.08911133 15.41186523 C54.183215 25.46554654 62.9825874 39.30135971 64.00488281 54.60791016 C64.38016834 76.96358196 64.38016834 76.96358196 60.84375 85.1953125 C60.4725 86.08694092 60.4725 86.08694092 60.09375 86.99658203 C52.85689052 104.01241541 41.74897362 115.80691788 24.859375 123.56640625 C22.20798739 124.58876334 19.58218136 125.43973921 16.84375 126.1953125 C16.06 126.41832031 15.27625 126.64132812 14.46875 126.87109375 C-1.97056145 130.84572991 -19.0071684 127.91498911 -33.45410156 119.31542969 C-47.77821139 109.88929431 -57.8359337 95.51519518 -61.65234375 78.83203125 C-64.26731906 59.95961255 -61.71405833 41.84022316 -50.015625 26.36328125 C-47.81834879 23.86253507 -45.54191037 21.51616716 -43.15625 19.1953125 C-42.46917969 18.48761719 -41.78210938 17.77992188 -41.07421875 17.05078125 C-29.9410709 6.24811645 -15.14799098 1.37210063 0 0 Z " fill="#8E3200" transform="translate(212.15625,263.8046875)"/>
<path d="M0 0 C13.21108989 4.3529628 24.11213811 12.40703926 34 22 C34.67289063 22.59941406 35.34578125 23.19882813 36.0390625 23.81640625 C55.9564698 42.18644526 66.54660699 72.8051053 68.203125 99.24169922 C68.30216493 102.51843533 68.32929262 105.78434083 68.3125 109.0625 C68.30686035 110.23498291 68.3012207 111.40746582 68.29541016 112.61547852 C67.60721501 162.57095095 41.76762395 206.9398035 7.01171875 241.33764648 C-23.53860186 270.98817231 -61.1929135 285.87935286 -103.60546875 285.3125 C-131.13815996 284.47595792 -154.98062433 271.31184069 -175 253 C-174.34 252.67 -173.68 252.34 -173 252 C-170.54749989 253.14308883 -168.19236845 254.34524628 -165.8125 255.625 C-139.01938096 269.45108134 -108.01082528 272.2314931 -79 264 C-77.75992188 263.67257812 -76.51984375 263.34515625 -75.2421875 263.0078125 C-52.34047062 256.23127856 -32.92201221 242.43166715 -16 226 C-15.45456543 225.48034668 -14.90913086 224.96069336 -14.34716797 224.42529297 C20.07911783 191.61573911 42.06715811 147.1840727 43.21972656 99.3828125 C43.66639223 64.22590174 31.28171377 34.12060717 7.54296875 8.5234375 C5.04582977 5.94699461 5.04582977 5.94699461 2.17578125 3.7890625 C1.45777344 3.19867188 0.73976563 2.60828125 0 2 C0 1.34 0 0.68 0 0 Z " fill="#F27B02" transform="translate(284,203)"/>
<path d="M0 0 C15.30615046 -0.76530752 31.58069618 5.55052602 43.08911133 15.41186523 C54.183215 25.46554654 62.9825874 39.30135971 64.00488281 54.60791016 C64.38016834 76.96358196 64.38016834 76.96358196 60.84375 85.1953125 C60.4725 86.08694092 60.4725 86.08694092 60.09375 86.99658203 C52.85689052 104.01241541 41.74897362 115.80691788 24.859375 123.56640625 C22.20798739 124.58876334 19.58218136 125.43973921 16.84375 126.1953125 C16.06 126.41832031 15.27625 126.64132812 14.46875 126.87109375 C-1.97056145 130.84572991 -19.0071684 127.91498911 -33.45410156 119.31542969 C-47.77821139 109.88929431 -57.8359337 95.51519518 -61.65234375 78.83203125 C-64.26731906 59.95961255 -61.71405833 41.84022316 -50.015625 26.36328125 C-47.81834879 23.86253507 -45.54191037 21.51616716 -43.15625 19.1953125 C-42.46917969 18.48761719 -41.78210938 17.77992188 -41.07421875 17.05078125 C-29.9410709 6.24811645 -15.14799098 1.37210063 0 0 Z M-35.20703125 34.5859375 C-43.89377477 46.41627771 -46.38459219 58.7091093 -45.15625 73.1953125 C-42.78910945 86.28588492 -35.82554938 96.38044232 -25.15625 104.1953125 C-13.7442921 111.06345868 -1.37139382 113.31678446 11.64453125 110.3203125 C24.2919051 106.11834348 35.15809219 98.79078935 41.63671875 86.90625 C47.62740352 74.29877563 49.62486134 59.59372664 44.84375 46.1328125 C39.27061061 33.86567887 29.94148085 24.67091603 17.28076172 19.86450195 C-1.84451956 13.25719215 -22.0295068 19.224709 -35.20703125 34.5859375 Z " fill="#671800" transform="translate(212.15625,263.8046875)"/>
<path d="M0 0 C14.96411241 10.50081614 28.20208382 24.5746257 38 40 C38.39864258 40.62406738 38.79728516 41.24813477 39.20800781 41.89111328 C54.55540058 66.39102003 61.64795067 95.868343 55.4375 124.5 C49.78696072 147.73664013 35.90171038 168.40297284 15.37670898 181.01147461 C-13.69057807 197.93901256 -48.91841689 201.40539407 -81.29296875 192.91015625 C-84.56058307 192.02165113 -87.76107466 191.00998747 -91 190 C-90.67 183.73 -90.34 177.46 -90 171 C-86.4421875 171.928125 -86.4421875 171.928125 -82.8125 172.875 C-57.49320497 179.23826045 -31.52848596 179.13752597 -8.26953125 165.9609375 C13.86889579 152.66354447 27.37195352 132.09169968 33.6796875 107.33203125 C40.16483332 75.83909711 30.45414763 44.26746321 13.44433594 17.89111328 C10.29392587 13.1873192 6.68118143 9.04913706 2.75 4.98828125 C1 3 1 3 0 0 Z " fill="#F27B02" transform="translate(459,144)"/>
<path d="M0 0 C8.89443446 6.30884305 15.46271407 14.87231819 17.640625 25.6796875 C18.54552186 36.5732536 16.26258928 45.9222377 9.640625 54.6796875 C7.140625 57.4296875 7.140625 57.4296875 4.640625 59.6796875 C3.91875 60.3603125 3.196875 61.0409375 2.453125 61.7421875 C-6.62530013 67.9962137 -17.21413057 70.09105144 -28.01953125 68.21875 C-35.07511943 66.36488603 -41.11609749 63.50345598 -44.90625 57.04296875 C-45.89465613 55.01035936 -46.84933426 52.96107678 -47.7734375 50.8984375 C-49.45817229 47.4791728 -51.48034713 44.62332896 -53.734375 41.5546875 C-56.85915619 36.95132211 -58.40715356 33.76657426 -57.87890625 28.1796875 C-55.41496147 16.32311111 -49.6768352 7.35550874 -39.875 0.1875 C-27.12446557 -7.45490107 -12.93804717 -7.24016547 0 0 Z " fill="#8D3100" transform="translate(399.359375,192.3203125)"/>
<path d="M0 0 C2.875 1.5 2.875 1.5 5 4 C5.84577114 9.32835821 5.84577114 9.32835821 5 12 C2.04215163 15.30741227 -1.29827681 18.19287663 -4.60449219 21.14550781 C-27.36834352 41.61270946 -40.96523881 70.31608386 -43 101 C-43.53985148 112.83576176 -43.42349723 124.5829822 -40.453125 136.125 C-39.7106567 139.1972826 -39.71953022 141.85873842 -40 145 C-41.5 147.4375 -41.5 147.4375 -44 149 C-46.77799312 149.55218306 -49.25340424 149.7295645 -52 149 C-57.53597551 144.95053643 -58.09755457 138.40360012 -59.234375 132.06640625 C-64.50007163 95.82494306 -56.02374415 56.54506054 -34 27 C-27.36400087 18.37779352 -20.49526078 10.78842462 -11.9375 4.0625 C-10.95652344 3.29035156 -9.97554687 2.51820313 -8.96484375 1.72265625 C-5.60044589 -0.23215199 -3.82492995 -0.47346143 0 0 Z " fill="#FDC55B" transform="translate(151,242)"/>
<path d="M0 0 C2.56857884 2.49519088 3.09172618 3.40669637 3.5625 6.9375 C3.04725047 11.31712104 1.59699515 12.37370854 -1.8125 15.125 C-4.72523916 16.24475586 -7.70085202 16.86024645 -10.75 17.5 C-24.84069908 20.86373428 -37.97036899 26.50824686 -46.65234375 38.7109375 C-48.14493043 41.14140871 -49.51159118 43.58758379 -50.8125 46.125 C-51.15152344 46.77339844 -51.49054688 47.42179687 -51.83984375 48.08984375 C-52.52067283 49.42326477 -53.17157884 50.77194423 -53.8125 52.125 C-60.11617803 51.54132611 -65.79910063 50.08428381 -71.8125 48.125 C-70.8225 47.63 -70.8225 47.63 -69.8125 47.125 C-69.1549315 45.37685719 -69.1549315 45.37685719 -68.625 43.25 C-63.46430583 27.04901482 -50.98999485 16.331306 -36.8125 8.125 C-35.99136719 7.63128906 -35.17023438 7.13757813 -34.32421875 6.62890625 C-28.99851715 3.67631521 -23.39162751 1.97161337 -17.5625 0.3125 C-16.79325195 0.09303711 -16.02400391 -0.12642578 -15.23144531 -0.35253906 C-4.75590201 -3.17060134 -4.75590201 -3.17060134 0 0 Z " fill="#FDC55B" transform="translate(337.8125,131.875)"/>
<path d="M0 0 C0 0.66 0 1.32 0 2 C-8.54022349 5.83438606 -15.38276144 7.31092409 -24.75 7.1875 C-25.69488281 7.18685547 -26.63976562 7.18621094 -27.61328125 7.18554688 C-34.57708824 7.14097059 -34.57708824 7.14097059 -38 6 C-38 8.31 -38 10.62 -38 13 C-37.34 13 -36.68 13 -36 13 C-35.93941406 13.90363281 -35.87882812 14.80726563 -35.81640625 15.73828125 C-35.73261719 16.91777344 -35.64882813 18.09726562 -35.5625 19.3125 C-35.48128906 20.48425781 -35.40007812 21.65601563 -35.31640625 22.86328125 C-35.1132629 26.02590958 -35.1132629 26.02590958 -34 29 C-33.93029948 31.39490986 -33.91551997 33.79167691 -33.9375 36.1875 C-33.94652344 37.45980469 -33.95554687 38.73210937 -33.96484375 40.04296875 C-33.97644531 41.01878906 -33.98804688 41.99460937 -34 43 C-34.66 43 -35.32 43 -36 43 C-36.10957031 41.70449219 -36.21914063 40.40898437 -36.33203125 39.07421875 C-37.39934541 26.9493004 -38.94355791 14.99591219 -41 3 C-40.27562744 3.16008545 -39.55125488 3.3201709 -38.80493164 3.48510742 C-24.5661936 6.09886828 -13.0472098 0 0 0 Z " fill="#EF9F3A" transform="translate(405,272)"/>
<path d="M0 0 C3.65943647 0.68907122 7.22441959 1.56821266 10.8125 2.5625 C12.27623047 2.96662109 12.27623047 2.96662109 13.76953125 3.37890625 C14.87361328 3.68634766 14.87361328 3.68634766 16 4 C16 4.66 16 5.32 16 6 C17.19625 6.12375 18.3925 6.2475 19.625 6.375 C22.43080745 6.67469151 25.19489235 7.03350511 27.9765625 7.51171875 C42.57850071 9.96860812 58.51661773 10.51812654 73 7 C73.33 6.67 73.66 6.34 74 6 C76.18019479 5.60333773 78.3696463 5.25684763 80.5625 4.9375 C81.76003906 4.76089844 82.95757812 4.58429688 84.19140625 4.40234375 C85.58166016 4.20318359 85.58166016 4.20318359 87 4 C87 4.66 87 5.32 87 6 C84.31339217 6.64974205 81.62581326 7.29488418 78.9375 7.9375 C78.18533203 8.11990234 77.43316406 8.30230469 76.65820312 8.49023438 C75.54155273 8.75610352 75.54155273 8.75610352 74.40234375 9.02734375 C73.38901978 9.27085571 73.38901978 9.27085571 72.35522461 9.51928711 C47.62564656 14.56671524 22.81727887 11.09614109 0 1 C0 0.67 0 0.34 0 0 Z " fill="#E97C1E" transform="translate(140,477)"/>
<path d="M0 0 C5.27128016 0.41642098 8.53136872 3.31803066 12.5625 6.4375 C13.874225 7.43892446 15.18796771 8.43771263 16.50390625 9.43359375 C17.07955322 9.87759521 17.6552002 10.32159668 18.24829102 10.77905273 C19.99771318 12.06317503 19.99771318 12.06317503 22.07714844 13.02612305 C24.95025376 14.48128012 26.77244693 16.68029423 29 19 C30.25305818 20.22489576 31.50984705 21.44598198 32.76953125 22.6640625 C34.11732086 23.98423886 35.46497455 25.30455401 36.8125 26.625 C37.50537109 27.29273438 38.19824219 27.96046875 38.91210938 28.6484375 C39.56630859 29.29296875 40.22050781 29.9375 40.89453125 30.6015625 C41.78942261 31.47288818 41.78942261 31.47288818 42.70239258 32.36181641 C44 34 44 34 44 37 C43.34 37 42.68 37 42 37 C42 36.34 42 35.68 42 35 C41.34 35 40.68 35 40 35 C39 33.33333333 38 31.66666667 37 30 C33.55555305 26.1640959 33.55555305 26.1640959 29 24 C27.32932867 22.00334402 25.66247014 20.00348966 24 18 C23.34 18 22.68 18 22 18 C22 17.34 22 16.68 22 16 C21.34 16 20.68 16 20 16 C18.33333333 14.33333333 16.66666667 12.66666667 15 11 C13.34338239 9.98343919 11.67888441 8.97934924 10 8 C9.67 7.34 9.34 6.68 9 6 C8.05125 5.71125 7.1025 5.4225 6.125 5.125 C2.76006822 3.91362456 1.80055991 3.00093318 0 0 Z " fill="#541404" transform="translate(451,119)"/>
<path d="M0 0 C0.66 0 1.32 0 2 0 C4.99495965 17.40972479 3.57233286 35.28300142 -2 52 C-2.66 52 -3.32 52 -4 52 C-4 50.68 -4 49.36 -4 48 C-3.34 48 -2.68 48 -2 48 C-1.85820312 46.70835937 -1.71640625 45.41671875 -1.5703125 44.0859375 C-1.21368266 40.85862651 -0.83224828 37.63593214 -0.4296875 34.4140625 C0.95347875 22.77422363 0.97727087 11.67442497 0 0 Z " fill="#E5781A" transform="translate(513,228)"/>
<path d="M0 0 C-1.65 0.66 -3.3 1.32 -5 2 C-5 2.66 -5 3.32 -5 4 C-6.65 4.33 -8.3 4.66 -10 5 C-10 5.66 -10 6.32 -10 7 C-11.98 7.66 -13.96 8.32 -16 9 C-16 9.66 -16 10.32 -16 11 C-16.66 11 -17.32 11 -18 11 C-18.37705078 11.86238281 -18.37705078 11.86238281 -18.76171875 12.7421875 C-20.16169681 15.29482888 -21.76159549 17.06233122 -23.8125 19.125 C-24.47894531 19.80820313 -25.14539063 20.49140625 -25.83203125 21.1953125 C-28.13135285 23.10934237 -30.18134751 24.04569183 -33 25 C-31.387672 20.96918 -28.53765404 18.24055863 -25.5 15.25 C-25.00113281 14.74339844 -24.50226563 14.23679687 -23.98828125 13.71484375 C-20.25341139 10 -20.25341139 10 -18 10 C-18 9.34 -18 8.68 -18 8 C-15.59078898 6.33162878 -13.20151477 4.80613412 -10.6875 3.3125 C-9.65206055 2.66958008 -9.65206055 2.66958008 -8.59570312 2.01367188 C-7.92861328 1.61341797 -7.26152344 1.21316406 -6.57421875 0.80078125 C-5.96151123 0.43122314 -5.34880371 0.06166504 -4.7175293 -0.3190918 C-3 -1 -3 -1 0 0 Z " fill="#551505" transform="translate(282,111)"/>
<path d="M0 0 C6.15234375 -0.09765625 6.15234375 -0.09765625 8 0 C8.33 0.33 8.66 0.66 9 1 C17.98436783 3.10865802 27.06338353 3.40341327 36.25 3.625 C37.5924696 3.66330989 38.93491806 3.70236841 40.27734375 3.7421875 C43.51809976 3.83544667 46.75886466 3.92124464 50 4 C47.13538145 6.86461855 44.88668241 6.28811489 40.96508789 6.32861328 C40.00723389 6.3232959 39.04937988 6.31797852 38.0625 6.3125 C36.5918811 6.30839111 36.5918811 6.30839111 35.09155273 6.30419922 C23.13985112 6.13658448 11.44184665 4.46722626 0 1 C0 0.67 0 0.34 0 0 Z " fill="#D86E19" transform="translate(375,335)"/>
<path d="M0 0 C0.66 0 1.32 0 2 0 C2.02696365 1.79158489 2.04637917 3.58328473 2.0625 5.375 C2.07410156 6.37273437 2.08570312 7.37046875 2.09765625 8.3984375 C2 11 2 11 1 13 C0.9025061 14.96422613 0.8692297 16.93179438 0.8671875 18.8984375 C0.86589844 20.10113281 0.86460938 21.30382812 0.86328125 22.54296875 C0.86714844 23.80753906 0.87101562 25.07210938 0.875 26.375 C0.87113281 27.60089844 0.86726563 28.82679688 0.86328125 30.08984375 C0.87143295 37.77689287 1.22335576 45.35208872 2 53 C1.34 53 0.68 53 0 53 C-1.12726312 45.1181047 -1.15260944 37.28736186 -1.13037109 29.34399414 C-1.12502015 27.07105819 -1.13033756 24.79832051 -1.13671875 22.52539062 C-1.13982113 14.95838321 -0.94092156 7.51990485 0 0 Z " fill="#F7A842" transform="translate(73,327)"/>
<path d="M0 0 C0 3 0 3 -2.25 5.4375 C-3.1575 6.283125 -4.065 7.12875 -5 8 C-5.721875 8.763125 -6.44375 9.52625 -7.1875 10.3125 C-9 12 -9 12 -11 12 C-11 12.66 -11 13.32 -11 14 C-11.99 14.66 -12.98 15.32 -14 16 C-14.33 16.99 -14.66 17.98 -15 19 C-15.99 19.66 -16.98 20.32 -18 21 C-18.33 21.99 -18.66 22.98 -19 24 C-21.0625 25.6875 -21.0625 25.6875 -23 27 C-22.48847632 23.21472479 -21.79154158 21.55891312 -19 19 C-18.67 18.01 -18.34 17.02 -18 16 C-16.59380621 14.82817184 -15.1831384 13.66112718 -13.74609375 12.52734375 C-11.75913913 10.7893141 -10.13302232 8.89701239 -8.4375 6.875 C-5.8892245 3.87369775 -3.59489455 1.74297917 0 0 Z " fill="#571806" transform="translate(110,223)"/>
<path d="M0 0 C0 0.66 0 1.32 0 2 C-0.75925781 2.38671875 -1.51851563 2.7734375 -2.30078125 3.171875 C-3.29464844 3.69265625 -4.28851563 4.2134375 -5.3125 4.75 C-6.29863281 5.26046875 -7.28476562 5.7709375 -8.30078125 6.296875 C-11.00325433 8.00205338 -12.15767476 9.46099715 -14 12 C-15.32597398 12.68118663 -16.65944402 13.34797861 -18 14 C-19.66458509 15.70757823 -19.66458509 15.70757823 -21.125 17.625 C-22.6328125 19.5390625 -22.6328125 19.5390625 -24 21 C-24.66 21 -25.32 21 -26 21 C-26.309375 21.61875 -26.61875 22.2375 -26.9375 22.875 C-27.625 24.25 -28.3125 25.625 -29 27 C-29.66 27 -30.32 27 -31 27 C-26.65645793 17.54026655 -11.13614186 0 0 0 Z " fill="#F4A43C" transform="translate(289,125)"/>
<path d="M0 0 C0 0.33 0 0.66 0 1 C-0.86278564 1.02505615 -1.72557129 1.0501123 -2.61450195 1.07592773 C-5.81823769 1.17111385 -9.02181537 1.27034444 -12.2253418 1.37231445 C-13.61135983 1.41560218 -14.99742906 1.45728164 -16.38354492 1.49731445 C-18.37691798 1.55516584 -20.37010565 1.61929776 -22.36328125 1.68359375 C-23.56251221 1.72025146 -24.76174316 1.75690918 -25.99731445 1.79467773 C-29.04994349 1.87733025 -29.04994349 1.87733025 -32 3 C-33.56118428 3.06740865 -35.1250252 3.08514456 -36.6875 3.0625 C-37.89986328 3.04896484 -37.89986328 3.04896484 -39.13671875 3.03515625 C-40.05904297 3.01775391 -40.05904297 3.01775391 -41 3 C-41 2.34 -41 1.68 -41 1 C-27.28791525 -0.77749247 -13.75862809 -2.20773878 0 0 Z " fill="#E29235" transform="translate(245,194)"/>
<path d="M0 0 C3.65943647 0.68907122 7.22441959 1.56821266 10.8125 2.5625 C12.27623047 2.96662109 12.27623047 2.96662109 13.76953125 3.37890625 C14.87361328 3.68634766 14.87361328 3.68634766 16 4 C16 4.66 16 5.32 16 6 C17.19625 6.12375 18.3925 6.2475 19.625 6.375 C26.10504702 7.09039719 32.5501944 8.05500715 39 9 C38.34 9.66 37.68 10.32 37 11 C24.25165988 10.56040206 11.48212539 6.3061337 0 1 C0 0.67 0 0.34 0 0 Z " fill="#E1751B" transform="translate(140,477)"/>
<path d="M0 0 C2.51113112 2.51113112 2.31370047 4.29928624 2.6484375 7.71484375 C3.02555904 10.16613373 3.71892012 12.29530044 4.5625 14.625 C5.84217768 18.20933991 6.29557501 21.15752493 6 25 C6.66 25 7.32 25 8 25 C7.67 26.32 7.34 27.64 7 29 C4.02921455 24.54382182 3.14522228 19.64901171 1.8125 14.5 C1.52697266 13.44167969 1.24144531 12.38335937 0.94726562 11.29296875 C0.68236328 10.27847656 0.41746094 9.26398438 0.14453125 8.21875 C-0.09934326 7.28998047 -0.34321777 6.36121094 -0.59448242 5.40429688 C-1 3 -1 3 0 0 Z " fill="#F2A238" transform="translate(75,383)"/>
<path d="M0 0 C0.99 0.33 1.98 0.66 3 1 C3.12276617 10.73944972 2.83779436 20.29056184 2 30 C1.34 30 0.68 30 0 30 C0 20.1 0 10.2 0 0 Z " fill="#551002" transform="translate(531,232)"/>
<path d="M0 0 C0.67740234 -0.01224609 1.35480469 -0.02449219 2.05273438 -0.03710938 C5.77191947 -0.04801608 8.53094986 0.13452523 11.6875 2.1875 C10.59953125 2.22488281 9.5115625 2.26226562 8.390625 2.30078125 C-0.51635361 2.6755874 -8.73080558 3.55842599 -17.3125 6.1875 C-17.6425 5.5275 -17.9725 4.8675 -18.3125 4.1875 C-17.60222656 3.98253906 -16.89195312 3.77757812 -16.16015625 3.56640625 C-15.24105469 3.29699219 -14.32195312 3.02757812 -13.375 2.75 C-12.00021484 2.34974609 -12.00021484 2.34974609 -10.59765625 1.94140625 C-6.79486701 0.68681083 -4.24707938 0.00397295 0 0 Z " fill="#F4A43E" transform="translate(376.3125,168.8125)"/>
<path d="M0 0 C4.97209562 1.76429199 9.43438061 4.3939166 14 7 C14 7.99 14 8.98 14 10 C14.99 10.66 15.98 11.32 17 12 C16.67 12.66 16.34 13.32 16 14 C10.53479973 9.8112524 5.13608809 5.58969574 0 1 C0 0.67 0 0.34 0 0 Z " fill="#E47A15" transform="translate(109,455)"/>
<path d="M0 0 C10.50878931 0.22666016 20.01811638 2.99434393 30 6 C30 6.66 30 7.32 30 8 C28.68 8 27.36 8 26 8 C26 7.34 26 6.68 26 6 C24.5459375 6.0309375 24.5459375 6.0309375 23.0625 6.0625 C20 6 20 6 19 5 C17.04218584 4.76771696 15.08418652 4.53681473 13.125 4.31640625 C10.28279069 3.89320964 7.70202762 2.96072093 5 2 C3.33911955 1.63893903 1.67381019 1.29537827 0 1 C0 0.67 0 0.34 0 0 Z " fill="#F2A23D" transform="translate(250,195)"/>
<path d="M0 0 C0.66 0.33 1.32 0.66 2 1 C1.01 2.485 1.01 2.485 0 4 C-0.99 4 -1.98 4 -3 4 C-3 4.66 -3 5.32 -3 6 C-3.66 6 -4.32 6 -5 6 C-5 6.66 -5 7.32 -5 8 C-5.763125 8.268125 -6.52625 8.53625 -7.3125 8.8125 C-9.87380884 9.94424112 -11.19692938 10.91223401 -13 13 C-13 12.01 -13 11.02 -13 10 C-10.6640625 7.7734375 -10.6640625 7.7734375 -7.625 5.375 C-6.62726563 4.57835937 -5.62953125 3.78171875 -4.6015625 2.9609375 C-2 1 -2 1 0 0 Z " fill="#551606" transform="translate(126,209)"/>
<path d="M0 0 C6.15234375 -0.09765625 6.15234375 -0.09765625 8 0 C8.33 0.33 8.66 0.66 9 1 C10.33630117 1.29430772 11.68419222 1.53661833 13.03515625 1.75390625 C14.24848633 1.95209961 14.24848633 1.95209961 15.48632812 2.15429688 C16.33646484 2.28900391 17.18660156 2.42371094 18.0625 2.5625 C18.91650391 2.70107422 19.77050781 2.83964844 20.65039062 2.98242188 C22.76634451 3.32523005 24.88310118 3.66307616 27 4 C27 4.33 27 4.66 27 5 C18.38866781 5.52722442 7.55498795 4.38799805 0 0 Z " fill="#E5791E" transform="translate(375,335)"/>
<path d="M0 0 C5.50719921 3.90510489 10.35827355 8.09717644 15 13 C14.01 13.495 14.01 13.495 13 14 C9.61767521 12.76120615 7.6908152 10.82848471 5.375 8.125 C4.78460938 7.44695312 4.19421875 6.76890625 3.5859375 6.0703125 C2.08681913 4.11333531 1.01430932 2.23951463 0 0 Z " fill="#E7821E" transform="translate(459,144)"/>
<path d="M0 0 C7.40002906 3.8406995 14.2757627 8.06986506 21 13 C17.46505881 13 16.63077157 12.26518887 13.8125 10.25 C10.78694297 8.14547997 7.84390024 6.36093669 4.5 4.8125 C1 3 1 3 0 0 Z " fill="#EE9E3C" transform="translate(433,127)"/>
<path d="M0 0 C4.06051787 1.35350596 4.64228453 3.27512664 6.75 6.9375 C7.38421875 8.01902344 8.0184375 9.10054688 8.671875 10.21484375 C9.11015625 11.13394531 9.5484375 12.05304688 10 13 C9.67 13.66 9.34 14.32 9 15 C7.86863414 13.44210317 6.74517679 11.87846143 5.625 10.3125 C4.99851562 9.44238281 4.37203125 8.57226562 3.7265625 7.67578125 C2.10584157 5.16403048 1.00141912 2.80700813 0 0 Z " fill="#EE9D39" transform="translate(88,426)"/>
<path d="M0 0 C4.571279 0.54855348 8.67435795 1.41744803 13 3 C13 3.66 13 4.32 13 5 C8.71 4.34 4.42 3.68 0 3 C0 2.01 0 1.02 0 0 Z " fill="#551505" transform="translate(403,98)"/>
<path d="M0 0 C0.66 0 1.32 0 2 0 C2.05391993 1.79133978 2.09275571 3.58313899 2.125 5.375 C2.14820312 6.37273437 2.17140625 7.37046875 2.1953125 8.3984375 C2 11 2 11 0 13 C-1.06671952 9.79984144 -0.94845472 8.11455706 -0.5625 4.8125 C-0.46066406 3.91144531 -0.35882813 3.01039063 -0.25390625 2.08203125 C-0.17011719 1.39496094 -0.08632812 0.70789063 0 0 Z " fill="#F3A137" transform="translate(73,327)"/>
<path d="M0 0 C0 0.66 0 1.32 0 2 C-2.88211302 2.96070434 -4.69850044 3.10581883 -7.6875 3.0625 C-8.89986328 3.04896484 -8.89986328 3.04896484 -10.13671875 3.03515625 C-11.05904297 3.01775391 -11.05904297 3.01775391 -12 3 C-12 2.34 -12 1.68 -12 1 C-7.915021 0.45533613 -4.1274515 0 0 0 Z " fill="#ED9C35" transform="translate(216,194)"/>
<path d="M0 0 C1.32 0 2.64 0 4 0 C4 0.66 4 1.32 4 2 C4.66 2 5.32 2 6 2 C6 2.66 6 3.32 6 4 C6.66 4 7.32 4 8 4 C8.33 3.34 8.66 2.68 9 2 C9.33 2.66 9.66 3.32 10 4 C9.67 4.99 9.34 5.98 9 7 C5.18315774 5.44499019 2.80804268 2.96404505 0 0 Z " fill="#EC9D3C" transform="translate(319,203)"/>
<path d="M0 0 C0 0.33 0 0.66 0 1 C-4.29 1 -8.58 1 -13 1 C-13.33 0.34 -13.66 -0.32 -14 -1 C-9.04653013 -2.59789351 -4.86717585 -1.28306814 0 0 Z " fill="#4E0F02" transform="translate(177,503)"/>
<path d="M0 0 C2.97 0.33 5.94 0.66 9 1 C9 1.66 9 2.32 9 3 C9.66 3.33 10.32 3.66 11 4 C9.02 4.33 7.04 4.66 5 5 C5 4.34 5 3.68 5 3 C3.35 2.67 1.7 2.34 0 2 C0 1.34 0 0.68 0 0 Z " fill="#521103" transform="translate(142,496)"/>
<path d="M0 0 C1.60785777 0.59427388 3.21117709 1.20083588 4.8125 1.8125 C6.15248047 2.31716797 6.15248047 2.31716797 7.51953125 2.83203125 C9.91924072 3.96197319 11.28423353 5.01062293 13 7 C10.2173834 6.33717447 7.51361063 5.56760146 4.8125 4.625 C4.11769531 4.39039063 3.42289062 4.15578125 2.70703125 3.9140625 C1 3 1 3 0 0 Z " fill="#E17A1D" transform="translate(284,203)"/>
<path d="M0 0 C0.33 0.66 0.66 1.32 1 2 C-2.47307692 7.82980769 -2.47307692 7.82980769 -5.140625 8.69140625 C-5.75421875 8.79324219 -6.3678125 8.89507812 -7 9 C-6.02180976 7.68677212 -5.0424189 6.37443848 -4.0625 5.0625 C-3.51722656 4.33160156 -2.97195313 3.60070312 -2.41015625 2.84765625 C-1 1 -1 1 0 0 Z " fill="#F7A53C" transform="translate(264,365)"/>
<path d="M0 0 C0.66 0 1.32 0 2 0 C1.34 3.63 0.68 7.26 0 11 C-0.66 11 -1.32 11 -2 11 C-2.19622241 6.78121808 -1.80230168 3.82989106 0 0 Z " fill="#F3A23B" transform="translate(151,307)"/>
<path d="M0 0 C3.8063457 0.67170806 7.35206816 1.72746564 11 3 C11 3.66 11 4.32 11 5 C7.37 4.01 3.74 3.02 0 2 C0 1.34 0 0.68 0 0 Z " fill="#EF9F3A" transform="translate(230,265)"/>
<path d="M0 0 C-3.1254959 2.64465038 -6.08788267 3.84414715 -10 5 C-10 4.01 -10 3.02 -10 2 C-6.49223216 0.39644899 -3.85645121 -0.22036864 0 0 Z " fill="#E37618" transform="translate(245,475)"/>
<path d="M0 0 C1.14926266 0.95421808 2.29430541 1.91352045 3.4375 2.875 C4.07558594 3.40867187 4.71367187 3.94234375 5.37109375 4.4921875 C7 6 7 6 8 8 C5.125 7.375 5.125 7.375 2 6 C0.625 2.875 0.625 2.875 0 0 Z " fill="#ED9C37" transform="translate(165,371)"/>
<path d="M0 0 C1.66519519 0.34060811 3.33157466 0.67558396 5 1 C5 1.33 5 1.66 5 2 C1.37 2 -2.26 2 -6 2 C-6 1.34 -6 0.68 -6 0 C-3.44211818 -1.27894091 -2.70140697 -0.77183056 0 0 Z " fill="#4F0D02" transform="translate(390,354)"/>
<path d="M0 0 C0 3 0 3 -2 6 C-5.125 7.1875 -5.125 7.1875 -8 8 C-5.33333333 5.33333333 -2.66666667 2.66666667 0 0 Z " fill="#F0A03B" transform="translate(130,227)"/>
<path d="M0 0 C0 0.33 0 0.66 0 1 C-3.61973402 2.31626692 -6.09567131 3 -10 3 C-10 2.34 -10 1.68 -10 1 C-3.71428571 -1.42857143 -3.71428571 -1.42857143 0 0 Z " fill="#F5A43A" transform="translate(184,202)"/>
<path d="M0 0 C0.5775 0.556875 1.155 1.11375 1.75 1.6875 C1.75 2.3475 1.75 3.0075 1.75 3.6875 C0.43 3.6875 -0.89 3.6875 -2.25 3.6875 C-2.25 3.0275 -2.25 2.3675 -2.25 1.6875 C-3.57 1.6875 -4.89 1.6875 -6.25 1.6875 C-6.25 1.0275 -6.25 0.3675 -6.25 -0.3125 C-3.46686179 -1.40587572 -2.65053646 -1.54614627 0 0 Z " fill="#551504" transform="translate(438.25,109.3125)"/>
<path d="M0 0 C-2 2 -2 2 -5.625 2.125 C-6.73875 2.08375 -7.8525 2.0425 -9 2 C-9 1.34 -9 0.68 -9 0 C-3.375 -1.125 -3.375 -1.125 0 0 Z " fill="#ED9B36" transform="translate(228,391)"/>
<path d="M0 0 C0.33 0 0.66 0 1 0 C0.67 3.96 0.34 7.92 0 12 C-0.33 12 -0.66 12 -1 12 C-2.42857143 3.42857143 -2.42857143 3.42857143 0 0 Z " fill="#4C0E02" transform="translate(58,317)"/>
<path d="M0 0 C0.33 0 0.66 0 1 0 C1.36923077 5.53846154 1.36923077 5.53846154 -0.5 7.875 C-1.2425 8.431875 -1.2425 8.431875 -2 9 C-1.125 1.125 -1.125 1.125 0 0 Z " fill="#EA9A37" transform="translate(76,315)"/>
<path d="M0 0 C0 3 0 3 0 3 Z " fill="#8D3A05" transform="translate(261,489)"/>
<path d="M0 0 C0.66 0.66 1.32 1.32 2 2 C1.34 2 0.68 2 0 2 C0 1.34 0 0.68 0 0 Z " fill="#BD600A" transform="translate(448,357)"/>
<path d="" fill="#C1690F" transform="translate(0,0)"/>
<path d="M0 0 C2 1 2 1 2 1 Z " fill="#AD5009" transform="translate(257,492)"/>
<path d="" fill="#B85D0A" transform="translate(0,0)"/>
<path d="M0 0 C2 1 2 1 2 1 Z " fill="#BC6C15" transform="translate(91,471)"/>
<path d="M0 0 C2 1 2 1 2 1 Z " fill="#6C2205" transform="translate(348,398)"/>
<path d="" fill="#A04607" transform="translate(0,0)"/>
<path d="" fill="#C07925" transform="translate(0,0)"/>
<path d="M0 0 C2 1 2 1 2 1 Z " fill="#BB5E0A" transform="translate(506,327)"/>
<path d="M0 0 C2 1 2 1 2 1 Z " fill="#883702" transform="translate(508,321)"/>
<path d="M0 0 C2 1 2 1 2 1 Z " fill="#9D4608" transform="translate(522,301)"/>
<path d="" fill="#843D0C" transform="translate(0,0)"/>
<path d="" fill="#BA5D09" transform="translate(0,0)"/>
<path d="" fill="#BC7421" transform="translate(0,0)"/>
<path d="M0 0 C2 1 2 1 2 1 Z " fill="#C2761D" transform="translate(121,208)"/>
<path d="" fill="#C3731B" transform="translate(0,0)"/>
<path d="M0 0 C2 1 2 1 2 1 Z " fill="#AD5E17" transform="translate(235,148)"/>
<path d="M0 0 C2 1 2 1 2 1 Z " fill="#C27015" transform="translate(483,137)"/>
<path d="M0 0 C2 1 2 1 2 1 Z " fill="#C67618" transform="translate(421,100)"/>
<path d="" fill="#B55F0C" transform="translate(0,0)"/>
<path d="" fill="#BF660E" transform="translate(0,0)"/>
<path d="" fill="#B5600C" transform="translate(0,0)"/>
<path d="" fill="#BE660E" transform="translate(0,0)"/>
<path d="" fill="#C0680F" transform="translate(0,0)"/>
<path d="" fill="#BC610B" transform="translate(0,0)"/>
<path d="" fill="#C86A0D" transform="translate(0,0)"/>
<path d="" fill="#BB600B" transform="translate(0,0)"/>
<path d="" fill="#813203" transform="translate(0,0)"/>
<path d="" fill="#752D05" transform="translate(0,0)"/>
<path d="" fill="#9D4906" transform="translate(0,0)"/>
<path d="" fill="#6D2608" transform="translate(0,0)"/>
<path d="" fill="#BF6D14" transform="translate(0,0)"/>
<path d="" fill="#C06E14" transform="translate(0,0)"/>
<path d="" fill="#C16E14" transform="translate(0,0)"/>
<path d="" fill="#C16E14" transform="translate(0,0)"/>
<path d="" fill="#C16B13" transform="translate(0,0)"/>
<path d="" fill="#BB6B14" transform="translate(0,0)"/>
<path d="" fill="#BF6E15" transform="translate(0,0)"/>
<path d="" fill="#782A04" transform="translate(0,0)"/>
<path d="" fill="#772C07" transform="translate(0,0)"/>
<path d="" fill="#792402" transform="translate(0,0)"/>
<path d="" fill="#BC6D15" transform="translate(0,0)"/>
<path d="" fill="#BC6D15" transform="translate(0,0)"/>
<path d="" fill="#641B06" transform="translate(0,0)"/>
<path d="" fill="#B25A09" transform="translate(0,0)"/>
<path d="" fill="#651C07" transform="translate(0,0)"/>
<path d="" fill="#692008" transform="translate(0,0)"/>
<path d="" fill="#BF7017" transform="translate(0,0)"/>
<path d="" fill="#B25A09" transform="translate(0,0)"/>
<path d="" fill="#BC6F17" transform="translate(0,0)"/>
<path d="" fill="#BC6F17" transform="translate(0,0)"/>
<path d="" fill="#681F06" transform="translate(0,0)"/>
<path d="" fill="#732605" transform="translate(0,0)"/>
<path d="" fill="#C5660C" transform="translate(0,0)"/>
<path d="" fill="#BC701A" transform="translate(0,0)"/>
<path d="" fill="#BF721A" transform="translate(0,0)"/>
<path d="" fill="#BE721A" transform="translate(0,0)"/>
<path d="" fill="#692106" transform="translate(0,0)"/>
<path d="" fill="#7C3909" transform="translate(0,0)"/>
<path d="" fill="#B46D1B" transform="translate(0,0)"/>
<path d="" fill="#7B2904" transform="translate(0,0)"/>
<path d="" fill="#B56E1C" transform="translate(0,0)"/>
<path d="" fill="#732805" transform="translate(0,0)"/>
<path d="" fill="#692106" transform="translate(0,0)"/>
<path d="" fill="#BB7622" transform="translate(0,0)"/>
<path d="" fill="#671F05" transform="translate(0,0)"/>
<path d="" fill="#B85D0A" transform="translate(0,0)"/>
<path d="" fill="#571301" transform="translate(0,0)"/>
<path d="" fill="#BE600D" transform="translate(0,0)"/>
<path d="" fill="#BC5E0A" transform="translate(0,0)"/>
<path d="" fill="#B95C09" transform="translate(0,0)"/>
<path d="" fill="#B55C09" transform="translate(0,0)"/>
<path d="" fill="#BD610B" transform="translate(0,0)"/>
<path d="" fill="#C2610C" transform="translate(0,0)"/>
<path d="" fill="#B97523" transform="translate(0,0)"/>
<path d="" fill="#662005" transform="translate(0,0)"/>
<path d="" fill="#AF5809" transform="translate(0,0)"/>
<path d="" fill="#B1590A" transform="translate(0,0)"/>
<path d="" fill="#C6680F" transform="translate(0,0)"/>
<path d="" fill="#692205" transform="translate(0,0)"/>
<path d="" fill="#762803" transform="translate(0,0)"/>
<path d="" fill="#762A07" transform="translate(0,0)"/>
<path d="" fill="#B97523" transform="translate(0,0)"/>
<path d="" fill="#6D2406" transform="translate(0,0)"/>
<path d="" fill="#C5660B" transform="translate(0,0)"/>
<path d="" fill="#772A04" transform="translate(0,0)"/>
<path d="" fill="#B25A09" transform="translate(0,0)"/>
<path d="" fill="#BB7825" transform="translate(0,0)"/>
<path d="" fill="#BC5F0A" transform="translate(0,0)"/>
<path d="" fill="#682006" transform="translate(0,0)"/>
<path d="" fill="#6C2304" transform="translate(0,0)"/>
<path d="" fill="#BF7824" transform="translate(0,0)"/>
<path d="" fill="#BF7824" transform="translate(0,0)"/>
<path d="" fill="#BC5F0A" transform="translate(0,0)"/>
<path d="" fill="#6A2104" transform="translate(0,0)"/>
<path d="" fill="#B15909" transform="translate(0,0)"/>
<path d="" fill="#CA7F26" transform="translate(0,0)"/>
<path d="" fill="#B16518" transform="translate(0,0)"/>
<path d="" fill="#BE5E0A" transform="translate(0,0)"/>
<path d="" fill="#B46F20" transform="translate(0,0)"/>
<path d="" fill="#B5681B" transform="translate(0,0)"/>
<path d="" fill="#C8690D" transform="translate(0,0)"/>
<path d="" fill="#773508" transform="translate(0,0)"/>
<path d="" fill="#B57020" transform="translate(0,0)"/>
<path d="" fill="#AA4F02" transform="translate(0,0)"/>
<path d="" fill="#B57020" transform="translate(0,0)"/>
<path d="" fill="#B36E20" transform="translate(0,0)"/>
<path d="" fill="#B57120" transform="translate(0,0)"/>
<path d="" fill="#C77B22" transform="translate(0,0)"/>
<path d="" fill="#B46F1E" transform="translate(0,0)"/>
<path d="" fill="#B56F1D" transform="translate(0,0)"/>
<path d="" fill="#C8690F" transform="translate(0,0)"/>
<path d="" fill="#9A4604" transform="translate(0,0)"/>
<path d="" fill="#B46D1B" transform="translate(0,0)"/>
<path d="" fill="#B56D1A" transform="translate(0,0)"/>
<path d="" fill="#BE670F" transform="translate(0,0)"/>
<path d="" fill="#7E3004" transform="translate(0,0)"/>
<path d="" fill="#B46B18" transform="translate(0,0)"/>
<path d="" fill="#C7771A" transform="translate(0,0)"/>
<path d="" fill="#B66C16" transform="translate(0,0)"/>
<path d="" fill="#6C2605" transform="translate(0,0)"/>
<path d="" fill="#692406" transform="translate(0,0)"/>
<path d="" fill="#BF6A11" transform="translate(0,0)"/>
<path d="" fill="#B16715" transform="translate(0,0)"/>
<path d="" fill="#C06C12" transform="translate(0,0)"/>
<path d="" fill="#722B06" transform="translate(0,0)"/>
<path d="" fill="#AD6416" transform="translate(0,0)"/>
<path d="" fill="#8F420A" transform="translate(0,0)"/>
<path d="" fill="#B36411" transform="translate(0,0)"/>
<path d="" fill="#C66F15" transform="translate(0,0)"/>
<path d="" fill="#B36512" transform="translate(0,0)"/>
<path d="" fill="#863904" transform="translate(0,0)"/>
<path d="" fill="#6E2809" transform="translate(0,0)"/>
<path d="" fill="#9D5616" transform="translate(0,0)"/>
<path d="" fill="#B56713" transform="translate(0,0)"/>
<path d="" fill="#692508" transform="translate(0,0)"/>
<path d="" fill="#C77316" transform="translate(0,0)"/>
<path d="" fill="#9A5417" transform="translate(0,0)"/>
<path d="" fill="#672207" transform="translate(0,0)"/>
<path d="" fill="#6B2408" transform="translate(0,0)"/>
<path d="" fill="#6A290A" transform="translate(0,0)"/>
<path d="" fill="#72310B" transform="translate(0,0)"/>
<path d="" fill="#BE6E15" transform="translate(0,0)"/>
<path d="" fill="#742F08" transform="translate(0,0)"/>
<path d="" fill="#7B3408" transform="translate(0,0)"/>
<path d="" fill="#7F3A06" transform="translate(0,0)"/>
<path d="" fill="#BB7321" transform="translate(0,0)"/>
<path d="" fill="#B36814" transform="translate(0,0)"/>
<path d="" fill="#B25F0D" transform="translate(0,0)"/>
<path d="" fill="#763308" transform="translate(0,0)"/>
<path d="" fill="#6B2708" transform="translate(0,0)"/>
<path d="" fill="#C47A23" transform="translate(0,0)"/>
<path d="" fill="#B57020" transform="translate(0,0)"/>
<path d="" fill="#BD7522" transform="translate(0,0)"/>
<path d="" fill="#C07722" transform="translate(0,0)"/>
<path d="" fill="#B46915" transform="translate(0,0)"/>
<path d="" fill="#BD711D" transform="translate(0,0)"/>
<path d="" fill="#C57A22" transform="translate(0,0)"/>
<path d="" fill="#773308" transform="translate(0,0)"/>
<path d="" fill="#BE7421" transform="translate(0,0)"/>
<path d="" fill="#BE7421" transform="translate(0,0)"/>
<path d="" fill="#C77A21" transform="translate(0,0)"/>
<path d="" fill="#BA7220" transform="translate(0,0)"/>
<path d="" fill="#C3761A" transform="translate(0,0)"/>
<path d="" fill="#CA7A1F" transform="translate(0,0)"/>
<path d="" fill="#BA6D1A" transform="translate(0,0)"/>
<path d="" fill="#C3761A" transform="translate(0,0)"/>
<path d="" fill="#BC741C" transform="translate(0,0)"/>
<path d="" fill="#BC741C" transform="translate(0,0)"/>
<path d="" fill="#BB721B" transform="translate(0,0)"/>
</svg>
